# xmcd CD database file generated by MAGIX-FreeDB- v3.0beta1
#
# Track frame offsets:
#	150
#	15546
#	35972
#	56029
#	75584
#	89958
#	107934
#	123819
#	152221
#	171111
#	185807
#	216414
#	237009
#	253523
#	272126
#	286252
#	301056
#
# Disc length: 4258
#
# Revision: 9
# Processed by: cddbd v1.5.2PL0 Copyright (c) Steve Scherf et al.
# Submitted via: MAGIX-FreeDB- v3.0beta1
#
DISCID=f510a011
DTITLE=Genesis - Turn It On Again: The Hits (The Tour Edition)
DYEAR=2007
DGENRE=Progressive Rock
TTITLE0=Paperlate
TTITLE1=Keep It Dark
TTITLE2=Man On The Corner
TTITLE3=Duchess
TTITLE4=Misunderstanding
TTITLE5=Follow You Follow Me
TTITLE6=Many Too Many
TTITLE7=Your Own Special Way
TTITLE8=Afterglow
TTITLE9=Pigeons
TTITLE10=Inside And Out
TTITLE11=A Trick Of The Tail
TTITLE12=Counting Out Time
TTITLE13=I Know What I Like (In Your Wardrobe)
TTITLE14=Happy The Man
TTITLE15=The Knife (Part 1)
TTITLE16=Congo
EXTD=
EXTT0=
EXTT1=
EXTT2=
EXTT3=
EXTT4=
EXTT5=
EXTT6=
EXTT7=
EXTT8=
EXTT9=
EXTT10=
EXTT11=
EXTT12=
EXTT13=
EXTT14=
EXTT15=
EXTT16=
PLAYORDER=
